<?xml version="1.0" encoding="UTF-8" standalone="no"?>
<!DOCTYPE svg PUBLIC "-//W3C//DTD SVG 1.1//EN" "http://www.w3.org/Graphics/SVG/1.1/DTD/svg11.dtd">
<svg width="100%" height="100%" viewBox="0 0 960 300" version="1.1" xmlns="http://www.w3.org/2000/svg" xmlns:xlink="http://www.w3.org/1999/xlink" xml:space="preserve" xmlns:serif="http://www.serif.com/" style="fill-rule:evenodd;clip-rule:evenodd;stroke-linejoin:round;stroke-miterlimit:2;">
    <g transform="matrix(2.34281,0,0,2.34281,452.555,72.5702)">
        <g transform="matrix(1.19311,0,0,1.19311,-49.2319,-6.38216)">
            <g>
                <g>
                    <path d="M93.1,29.1C91.9,31.2 91.3,33.4 91.3,35.7C91.3,38 91.9,40.2 93.1,42.3C94.3,44.4 95.9,46 97.9,47.2C99.9,48.4 102,49 104.3,49C106.6,49 108.8,48.4 110.8,47.3C112.9,46.1 114.4,44.6 115.6,42.6C116.7,40.6 117.3,38.4 117.3,35.9L117,19.3L121.2,19.3L121.2,52L117,52L117,46.4C115.2,48.5 113.3,50.2 111.1,51.2C108.9,52.3 106.5,52.8 103.9,52.8C99.3,52.8 95.3,51.1 92,47.8C88.7,44.4 87.1,40.4 87.1,35.5C87.1,30.8 88.8,26.8 92.1,23.4" style="fill:rgb(78,173,255);fill-rule:nonzero;"/>
                </g>
                <path d="M114.5,15.1C114.5,15.1 117.4,32.9 104.2,36.1C91,39.3 96.3,49.1 103.7,49C103.7,49 102.9,50.4 102.7,50.4C102.5,50.4 92.2,45.8 92,45.5C91.9,45.2 88.8,34.1 88.8,34.1L94,24.6L108.4,20.5C108.4,20.5 114,17.8 114.6,14.8" style="fill:rgb(78,173,255);fill-opacity:0.4;fill-rule:nonzero;"/>
                <path d="M105.5,35.7C105.5,35.7 94.2,46.1 105.9,48.9C105.9,48.9 104,50.5 99.3,48C94.6,45.7 93.8,37.8 105.5,35.7Z" style="fill:rgb(78,173,255);fill-opacity:0.2;fill-rule:nonzero;"/>
                <path d="M114.5,15.1C114.5,15.1 116.1,26.3 103.6,28.8C91,31.2 90.1,45.1 99.3,48.1C99.3,48.1 95.3,49.9 91.2,43C87.1,36 94.2,23 105.4,20.8C116.6,18.6 113.3,17.3 114.5,15.2" style="fill:rgb(78,173,255);fill-opacity:0.6;fill-rule:nonzero;"/>
                <path d="M91.3,37.7C91.3,37.7 89,28.6 102.3,24.6C115.6,20.6 114.4,16.2 114.4,15.1C114.4,15.1 114.4,17.1 101.5,18.7C101.5,18.7 90,19.6 87.9,32.3C85.9,44.9 91.3,37.7 91.3,37.7Z" style="fill:rgb(78,173,255);fill-rule:nonzero;"/>
            </g>
            <path d="M117,19.3L122.462,19.3L122.534,52.034L117,52L117,19.3Z" style="fill:rgb(78,173,255);fill-rule:nonzero;"/>
            <g>
                <path d="M6.2,42.4C8.3,44.9 10.5,46.6 14.2,46.6C17.5,46.6 21,45.2 21,41.8C21,38.5 17.7,37.6 14.4,36.9C8.5,35.6 3.4,34.3 3.4,27.9C3.4,21.9 9.2,18.7 15,18.7C19.4,18.7 23.4,20.4 25.6,24.3L21.3,27.2C20,25 17.8,23.5 14.7,23.5C11.8,23.5 8.6,24.9 8.6,27.8C8.6,30.4 12.3,31.5 16.4,32.3C21.9,33.4 26.6,35.4 26.6,41.6C26.6,48.6 20.4,51.4 14.2,51.4C9,51.4 5.2,50 2.1,45.6L6.2,42.4Z" style="fill:rgb(78,173,255);fill-rule:nonzero;"/>
                <path d="M60.7,45C57,49.7 52.7,51.4 46.9,51.4C37.1,51.4 31.2,44.1 31.2,35.1C31.2,25.5 38,18.8 47.1,18.8C55.9,18.8 61.8,24.8 61.8,35.1L61.8,36.8L36.7,36.8C37.1,42.2 41.2,46.8 46.9,46.8C51.4,46.8 54.3,45.2 56.8,42.1L60.7,45ZM56.3,32.3C56.1,27.1 52.6,23.5 46.9,23.5C41.2,23.5 37.4,27 36.7,32.3L56.3,32.3Z" style="fill:rgb(78,173,255);fill-rule:nonzero;"/>
                <path d="M69.4,26.9C69.4,24 69.367,21.6 69.367,19.5L74.1,19.5C74.1,21.2 74.2,22.9 74.2,24.6L74.3,24.6C75.7,21.5 79.5,18.7 84.7,18.7C85.4,18.7 86.1,18.8 86.8,19L86.5,24.2C85.6,23.9 84.6,23.8 83.7,23.8C77.4,23.8 74.6,28.3 74.6,35.4L74.6,50.5L69.4,50.5L69.4,26.9Z" style="fill:rgb(78,173,255);fill-rule:nonzero;"/>
                <path d="M129.6,19.5L134.8,19.5L134.8,24L134.9,24C137.8,20.7 141.5,18.7 146.1,18.7C155.9,18.7 162.4,25.6 162.4,35C162.4,44.3 155.6,51.3 146.9,51.3C141.3,51.3 136.9,48.5 134.9,45L134.8,45L134.8,65.7L129.6,65.7L129.6,19.5ZM145.8,46.6C152.5,46.6 156.8,41.6 156.8,35C156.8,28.5 152.5,23.4 145.8,23.4C139.1,23.4 134.8,28.4 134.8,35C134.7,41.6 139.1,46.6 145.8,46.6Z" style="fill:rgb(78,173,255);fill-rule:nonzero;"/>
                <path d="M166.7,0.4L171.9,0.4L171.9,23.9L172,23.9C173.4,21.4 177.1,18.8 182,18.8C190.2,18.8 193.8,24 193.8,31.5L193.8,50.7L188.6,50.7L188.6,31.9C188.6,26.7 186.3,23.5 181.5,23.5C174.8,23.5 171.9,28.4 171.9,35.5L171.9,50.6L166.7,50.6L166.7,0.4Z" style="fill:rgb(78,173,255);fill-rule:nonzero;"/>
            </g>
        </g>
        <g transform="matrix(2.68655,0,0,2.68655,-414.849,-57.7552)">
            <g>
                <path d="M93.1,29.1C91.9,31.2 91.3,33.4 91.3,35.7C91.3,38 91.9,40.2 93.1,42.3C94.3,44.4 95.9,46 97.9,47.2C99.9,48.4 102,49 104.3,49C106.6,49 108.8,48.4 110.8,47.3C112.9,46.1 114.4,44.6 115.6,42.6C116.7,40.6 117.3,38.4 117.3,35.9L117,19.3L121.2,19.3L121.2,52L117,52L117,46.4C115.2,48.5 113.3,50.2 111.1,51.2C108.9,52.3 106.5,52.8 103.9,52.8C99.3,52.8 95.3,51.1 92,47.8C88.7,44.4 87.1,40.4 87.1,35.5C87.1,30.8 88.8,26.8 92.1,23.4" style="fill:rgb(78,173,255);fill-rule:nonzero;"/>
            </g>
            <path d="M114.5,15.1C114.5,15.1 117.4,32.9 104.2,36.1C91,39.3 96.3,49.1 103.7,49C103.7,49 102.9,50.4 102.7,50.4C102.5,50.4 92.2,45.8 92,45.5C91.9,45.2 88.8,34.1 88.8,34.1L94,24.6L108.4,20.5C108.4,20.5 114,17.8 114.6,14.8" style="fill:rgb(78,173,255);fill-opacity:0.4;fill-rule:nonzero;"/>
            <path d="M105.5,35.7C105.5,35.7 94.2,46.1 105.9,48.9C105.9,48.9 104,50.5 99.3,48C94.6,45.7 93.8,37.8 105.5,35.7Z" style="fill:rgb(78,173,255);fill-opacity:0.2;fill-rule:nonzero;"/>
            <path d="M114.5,15.1C114.5,15.1 116.1,26.3 103.6,28.8C91,31.2 90.1,45.1 99.3,48.1C99.3,48.1 95.3,49.9 91.2,43C87.1,36 94.2,23 105.4,20.8C116.6,18.6 113.3,17.3 114.5,15.2" style="fill:rgb(78,173,255);fill-opacity:0.6;fill-rule:nonzero;"/>
            <path d="M91.3,37.7C91.3,37.7 89,28.6 102.3,24.6C115.6,20.6 114.4,16.2 114.4,15.1C114.4,15.1 114.4,17.1 101.5,18.7C101.5,18.7 90,19.6 87.9,32.3C85.9,44.9 91.3,37.7 91.3,37.7Z" style="fill:rgb(78,173,255);fill-rule:nonzero;"/>
        </g>
        <g transform="matrix(2.68655,0,0,2.68655,-414.849,-57.7552)">
            <path d="M117,19.3L122.462,19.3L122.534,52.034L117,52L117,19.3Z" style="fill:rgb(78,173,255);fill-rule:nonzero;"/>
        </g>
    </g>
</svg>
