<?xml version="1.0" encoding="UTF-8" standalone="no"?>
<!DOCTYPE svg PUBLIC "-//W3C//DTD SVG 1.1//EN" "http://www.w3.org/Graphics/SVG/1.1/DTD/svg11.dtd">
<svg width="100%" height="100%" viewBox="0 0 960 300" version="1.1" xmlns="http://www.w3.org/2000/svg" xmlns:xlink="http://www.w3.org/1999/xlink" xml:space="preserve" xmlns:serif="http://www.serif.com/" style="fill-rule:evenodd;clip-rule:evenodd;stroke-linejoin:round;stroke-miterlimit:2;">
    <g transform="matrix(2.34281,0,0,2.34281,452.555,72.5702)">
        <g id="g150" transform="matrix(0.473677,0,0,0.473677,-181.959,-35.7083)">
            <g transform="matrix(0.883094,0,0,0.883296,53.169,59.4702)">
                <g id="g148">
                    <g id="g122">
                        <path id="use116" d="M75.588,-23.281C73.064,-23.293 70.611,-22.432 68.682,-20.789C59.941,-10.582 -6.051,66.427 -14.367,76.123C-17.244,79.477 -18.82,83.737 -18.82,88.148L-18.82,179.721C-18.82,194.775 -10.408,207.75 3.328,213.904C3.329,213.905 3.331,213.906 3.332,213.906C17.09,220.084 32.351,217.721 43.602,207.705L43.607,207.699C44.907,206.533 51.231,200.897 62.598,190.777L72.639,181.1C74.282,179.517 76.918,179.517 78.561,181.1L88.307,190.498C99.842,200.799 106.304,206.564 107.572,207.691C107.574,207.693 107.576,207.695 107.578,207.697C114.687,214.04 123.441,217.291 132.371,217.291C137.57,217.291 142.816,216.207 147.86,213.957C161.607,207.803 170.02,194.817 170.02,179.748L170.02,88.148C170.02,83.746 168.432,79.482 165.565,76.123L165.561,76.117C157.249,66.425 91.368,-10.487 82.645,-20.66C80.617,-22.385 78.111,-23.27 75.588,-23.281L75.588,-23.281ZM75.613,-3.934C76.811,-3.934 77.956,-3.429 78.764,-2.545C78.764,-2.545 97.757,18.243 116.766,39.859C126.27,50.668 135.776,61.678 142.953,70.453C146.542,74.841 149.541,78.659 151.713,81.686C152.799,83.199 153.677,84.505 154.354,85.68C155.03,86.855 155.775,87.399 155.775,89.885L155.775,179.238C155.775,188.449 150.591,197.15 142.004,200.969C133.556,204.743 123.943,203.225 117.064,197.084L117.062,197.082C115.764,195.932 109.525,190.367 98.228,180.297C98.186,180.259 98.144,180.221 98.103,180.182L89.031,171.422C88.199,170.618 87.729,169.509 87.729,168.352C87.729,167.194 88.201,166.083 89.035,165.279L106.393,148.547L106.395,148.545C106.536,148.404 106.646,148.292 106.699,148.238C106.726,148.211 106.74,148.195 106.717,148.221C106.694,148.246 106.725,148.125 106.34,148.703C106.522,148.43 106.735,148.179 106.975,147.955C116.062,139.439 121.303,127.325 121.303,114.805C121.303,101.794 115.728,89.347 105.996,80.666L105.996,80.668C96.289,72.011 83.213,67.904 70.195,69.387C48.576,71.885 31.684,89.466 30,111.205C28.936,125.124 34.119,138.504 44.084,147.85C44.1,147.865 44.115,147.881 44.131,147.897C45.321,149.048 51.332,154.85 62.152,165.279C62.986,166.083 63.458,167.193 63.458,168.352C63.458,169.51 62.986,170.62 62.152,171.424L53.119,180.131C53.08,180.169 53.04,180.206 53,180.242C41.694,190.334 35.375,195.957 34.156,197.049C34.154,197.05 34.152,197.051 34.15,197.053C27.252,203.214 17.615,204.703 9.18,200.914L9.178,200.912C0.739,197.147 -4.563,188.969 -4.563,179.721L-4.563,89.885C-4.563,87.406 -3.818,86.854 -3.141,85.678C-2.463,84.501 -1.586,83.194 -0.5,81.68C1.672,78.651 4.673,74.832 8.262,70.443C15.44,61.667 24.949,50.654 34.455,39.848C53.467,18.234 72.463,-2.545 72.463,-2.545C73.271,-3.429 74.415,-3.934 75.613,-3.934ZM75.613,83.332C83.347,83.332 90.725,86.128 96.523,91.311C103.209,97.286 107.059,105.841 107.059,114.816C107.059,123.507 103.498,131.711 96.99,137.85C96.989,137.852 96.988,137.854 96.986,137.856C95.768,139.023 89.604,144.964 78.535,155.629C76.892,157.212 74.254,157.212 72.611,155.627C61.394,144.8 55.162,138.792 53.924,137.605L53.918,137.597C46.995,131.109 43.471,121.828 44.207,112.309C45.347,97.501 57.115,85.245 71.838,83.555C71.85,83.553 71.863,83.552 71.875,83.551C73.077,83.423 74.315,83.332 75.613,83.332L75.613,83.332Z" style="fill:white;fill-rule:nonzero;"/>
                    </g>
                </g>
            </g>
            <g id="layer5">
                <path id="path137330" d="M77.761,208.724C82.314,213.279 82.349,220.612 77.853,225.109C73.357,229.606 66.025,229.571 61.472,225.017C56.93,220.474 56.884,213.14 61.391,208.643C65.887,204.147 73.219,204.181 77.761,208.724L77.761,208.724Z" style="fill:white;fill-rule:nonzero;"/>
                <path id="path137332" d="M176.854,208.724C181.408,213.279 181.443,220.612 176.947,225.109C172.451,229.606 165.119,229.571 160.566,225.017C156.024,220.474 155.977,213.14 160.485,208.643C164.981,204.147 172.312,204.181 176.854,208.724L176.854,208.724Z" style="fill:white;fill-rule:nonzero;"/>
            </g>
            <g id="layer3">
                <path id="use92" d="M128.081,152.724C132.635,157.279 132.669,164.612 128.173,169.109C123.677,173.606 116.346,173.571 111.792,169.017C107.25,164.474 107.204,157.14 111.712,152.643C116.207,148.147 123.539,148.181 128.081,152.724L128.081,152.724Z" style="fill:white;fill-rule:nonzero;"/>
            </g>
        </g>
        <g id="layer4" transform="matrix(0.681614,0,0,0.681614,-13.8359,-192.603)">
            <g id="text147930">
                <path id="path969" d="M-48.254,300.525L-34.83,298.363L-34.83,312.327L-18.704,312.327L-18.704,323.498L-34.83,323.498L-34.83,340.165C-34.83,342.987 -34.35,345.24 -33.389,346.921C-32.368,348.603 -30.356,349.444 -27.353,349.444C-25.912,349.444 -24.44,349.324 -22.939,349.083C-21.377,348.783 -19.966,348.393 -18.704,347.912L-16.812,358.363C-18.434,359.023 -20.236,359.594 -22.218,360.074C-24.2,360.555 -26.632,360.795 -29.515,360.795C-33.179,360.795 -36.212,360.315 -38.614,359.354C-41.017,358.333 -42.939,356.951 -44.38,355.21C-45.821,353.408 -46.842,351.246 -47.443,348.723C-47.984,346.201 -48.254,343.408 -48.254,340.345L-48.254,300.525Z" style="fill:white;fill-rule:nonzero;"/>
                <path id="path971" d="M0.37,359.714L-13.053,359.714L-13.053,312.327L0.37,312.327L0.37,359.714ZM1.631,298.633C1.631,301.096 0.821,303.048 -0.801,304.489C-2.362,305.87 -4.224,306.561 -6.387,306.561C-8.549,306.561 -10.441,305.87 -12.062,304.489C-13.624,303.048 -14.404,301.096 -14.404,298.633C-14.404,296.171 -13.624,294.249 -12.062,292.867C-10.441,291.426 -8.549,290.705 -6.387,290.705C-4.224,290.705 -2.362,291.426 -0.801,292.867C0.821,294.249 1.631,296.171 1.631,298.633Z" style="fill:white;fill-rule:nonzero;"/>
                <path id="path973" d="M7.733,313.948C10.016,313.288 12.958,312.687 16.562,312.147C20.166,311.546 23.949,311.246 27.913,311.246C31.937,311.246 35.271,311.786 37.913,312.867C40.616,313.888 42.748,315.36 44.31,317.282C45.871,319.204 46.982,321.486 47.643,324.129C48.304,326.771 48.634,329.714 48.634,332.957L48.634,359.714L35.211,359.714L35.211,334.579C35.211,330.255 34.64,327.192 33.499,325.39C32.358,323.588 30.226,322.687 27.103,322.687C26.142,322.687 25.121,322.747 24.04,322.867C22.958,322.927 21.997,323.018 21.157,323.138L21.157,359.714L7.733,359.714L7.733,313.948Z" style="fill:white;fill-rule:nonzero;"/>
                <path id="path975" d="M96.177,312.327C93.474,321.456 90.651,330.014 87.708,338.002C84.766,345.99 81.552,353.738 78.069,361.246C76.808,363.948 75.546,366.231 74.285,368.092C73.024,370.014 71.642,371.576 70.141,372.777C68.639,374.038 66.928,374.939 65.006,375.48C63.144,376.08 60.952,376.381 58.429,376.381C56.327,376.381 54.375,376.17 52.573,375.75C50.832,375.39 49.39,374.969 48.249,374.489L50.592,363.768C51.973,364.249 53.204,364.579 54.285,364.759C55.366,364.939 56.507,365.029 57.709,365.029C60.111,365.029 61.943,364.369 63.204,363.047C64.525,361.786 65.637,360.014 66.537,357.732C63.474,351.726 60.411,344.999 57.348,337.552C54.285,330.045 51.402,321.636 48.7,312.327L62.934,312.327C63.534,314.669 64.225,317.222 65.006,319.984C65.847,322.687 66.718,325.45 67.618,328.273C68.519,331.035 69.42,333.738 70.321,336.381C71.282,339.023 72.183,341.426 73.024,343.588C73.805,341.426 74.615,339.023 75.456,336.381C76.297,333.738 77.108,331.035 77.889,328.273C78.73,325.45 79.51,322.687 80.231,319.984C81.012,317.222 81.703,314.669 82.303,312.327L96.177,312.327Z" style="fill:white;fill-rule:nonzero;"/>
                <path id="path977" d="M118.675,289.804C121.197,289.804 123.51,290.075 125.612,290.615C127.714,291.096 129.336,291.576 130.477,292.057L127.864,302.777C126.663,302.237 125.342,301.846 123.9,301.606C122.519,301.306 121.228,301.156 120.026,301.156C118.405,301.156 117.023,301.396 115.882,301.876C114.801,302.297 113.93,302.897 113.27,303.678C112.669,304.459 112.219,305.39 111.918,306.471C111.678,307.552 111.558,308.723 111.558,309.985L111.558,312.327L128.134,312.327L128.134,323.498L111.558,323.498L111.558,359.714L98.135,359.714L98.135,309.804C98.135,303.678 99.846,298.813 103.27,295.21C106.753,291.606 111.888,289.804 118.675,289.804Z" style="fill:white;fill-rule:nonzero;"/>
                <path id="path979" d="M127.93,336.381C127.93,332.177 128.56,328.513 129.822,325.39C131.143,322.207 132.855,319.564 134.957,317.462C137.059,315.36 139.461,313.768 142.164,312.687C144.927,311.606 147.749,311.066 150.632,311.066C157.359,311.066 162.674,313.138 166.578,317.282C170.482,321.366 172.434,327.402 172.434,335.39C172.434,336.171 172.404,337.041 172.344,338.002C172.284,338.903 172.224,339.714 172.164,340.435L141.713,340.435C142.014,343.198 143.305,345.39 145.587,347.011C147.87,348.633 150.933,349.444 154.776,349.444C157.239,349.444 159.641,349.234 161.984,348.813C164.386,348.333 166.338,347.762 167.839,347.101L169.641,358.002C168.921,358.363 167.96,358.723 166.758,359.083C165.557,359.444 164.206,359.744 162.704,359.984C161.263,360.285 159.701,360.525 158.02,360.705C156.338,360.885 154.656,360.975 152.975,360.975C148.71,360.975 144.987,360.345 141.804,359.083C138.68,357.822 136.068,356.11 133.966,353.948C131.924,351.726 130.392,349.113 129.371,346.111C128.41,343.108 127.93,339.864 127.93,336.381L127.93,336.381ZM159.461,331.246C159.401,330.105 159.191,328.993 158.831,327.912C158.53,326.831 158.02,325.87 157.299,325.03C156.638,324.189 155.767,323.498 154.686,322.957C153.665,322.417 152.374,322.147 150.813,322.147C149.311,322.147 148.02,322.417 146.939,322.957C145.858,323.438 144.957,324.099 144.236,324.939C143.515,325.78 142.945,326.771 142.524,327.912C142.164,328.993 141.894,330.105 141.713,331.246L159.461,331.246Z" style="fill:white;fill-rule:nonzero;"/>
                <path id="path981" d="M177.094,300.525L190.518,298.363L190.518,312.327L206.644,312.327L206.644,323.498L190.518,323.498L190.518,340.165C190.518,342.987 190.998,345.24 191.959,346.921C192.98,348.603 194.992,349.444 197.995,349.444C199.437,349.444 200.908,349.324 202.41,349.083C203.971,348.783 205.383,348.393 206.644,347.912L208.536,358.363C206.914,359.023 205.112,359.594 203.13,360.074C201.148,360.555 198.716,360.795 195.833,360.795C192.169,360.795 189.136,360.315 186.734,359.354C184.332,358.333 182.41,356.951 180.968,355.21C179.527,353.408 178.506,351.246 177.905,348.723C177.365,346.201 177.094,343.408 177.094,340.345L177.094,300.525Z" style="fill:white;fill-rule:nonzero;"/>
                <path id="path983" d="M208.241,336.02C208.241,332.597 208.782,329.384 209.863,326.381C211.004,323.318 212.625,320.675 214.727,318.453C216.83,316.171 219.382,314.369 222.385,313.048C225.388,311.726 228.811,311.066 232.655,311.066C235.178,311.066 237.49,311.306 239.592,311.786C241.694,312.207 243.736,312.837 245.718,313.678L242.926,324.399C241.664,323.918 240.283,323.498 238.781,323.138C237.28,322.777 235.598,322.597 233.736,322.597C229.772,322.597 226.799,323.828 224.817,326.291C222.896,328.753 221.935,331.996 221.935,336.02C221.935,340.285 222.836,343.588 224.637,345.93C226.499,348.273 229.712,349.444 234.277,349.444C235.899,349.444 237.64,349.294 239.502,348.993C241.364,348.693 243.076,348.213 244.637,347.552L246.529,358.543C244.968,359.204 243.016,359.774 240.673,360.255C238.331,360.735 235.748,360.975 232.926,360.975C228.601,360.975 224.878,360.345 221.754,359.083C218.631,357.762 216.049,355.99 214.007,353.768C212.025,351.546 210.553,348.933 209.592,345.93C208.691,342.867 208.241,339.564 208.241,336.02Z" style="fill:white;fill-rule:nonzero;"/>
                <path id="path985" d="M250.288,359.714L250.288,291.967L263.712,289.804L263.712,312.507C264.613,312.207 265.754,311.936 267.135,311.696C268.577,311.396 269.958,311.246 271.279,311.246C275.123,311.246 278.306,311.786 280.829,312.867C283.411,313.888 285.453,315.36 286.955,317.282C288.517,319.204 289.598,321.486 290.198,324.129C290.859,326.771 291.189,329.714 291.189,332.957L291.189,359.714L277.766,359.714L277.766,334.579C277.766,330.255 277.195,327.192 276.054,325.39C274.973,323.588 272.931,322.687 269.928,322.687C268.727,322.687 267.586,322.807 266.505,323.048C265.484,323.228 264.553,323.438 263.712,323.678L263.712,359.714L250.288,359.714Z" style="fill:white;fill-rule:nonzero;"/>
            </g>
        </g>
    </g>
</svg>
